<svg class="lds-spinner" width="200px"  height="200px"  xmlns="http://www.w3.org/2000/svg" xmlns:xlink="http://www.w3.org/1999/xlink" viewBox="0 0 100 100" preserveAspectRatio="xMidYMid" style="background: rgba(0, 0, 0, 0) none repeat scroll 0% 0%;"><g transform="rotate(0 50 50)">
  <rect x="49.5" y="25.5" rx="0" ry="0" width="1" height="9" fill="#393939">
    <animate attributeName="opacity" values="1;0" times="0;1" dur="1s" begin="-0.9411764705882353s" repeatCount="indefinite"></animate>
  </rect>
</g><g transform="rotate(21.176470588235293 50 50)">
  <rect x="49.5" y="25.5" rx="0" ry="0" width="1" height="9" fill="#393939">
    <animate attributeName="opacity" values="1;0" times="0;1" dur="1s" begin="-0.8823529411764706s" repeatCount="indefinite"></animate>
  </rect>
</g><g transform="rotate(42.35294117647059 50 50)">
  <rect x="49.5" y="25.5" rx="0" ry="0" width="1" height="9" fill="#393939">
    <animate attributeName="opacity" values="1;0" times="0;1" dur="1s" begin="-0.8235294117647058s" repeatCount="indefinite"></animate>
  </rect>
</g><g transform="rotate(63.529411764705884 50 50)">
  <rect x="49.5" y="25.5" rx="0" ry="0" width="1" height="9" fill="#393939">
    <animate attributeName="opacity" values="1;0" times="0;1" dur="1s" begin="-0.7647058823529411s" repeatCount="indefinite"></animate>
  </rect>
</g><g transform="rotate(84.70588235294117 50 50)">
  <rect x="49.5" y="25.5" rx="0" ry="0" width="1" height="9" fill="#393939">
    <animate attributeName="opacity" values="1;0" times="0;1" dur="1s" begin="-0.7058823529411765s" repeatCount="indefinite"></animate>
  </rect>
</g><g transform="rotate(105.88235294117646 50 50)">
  <rect x="49.5" y="25.5" rx="0" ry="0" width="1" height="9" fill="#393939">
    <animate attributeName="opacity" values="1;0" times="0;1" dur="1s" begin="-0.6470588235294118s" repeatCount="indefinite"></animate>
  </rect>
</g><g transform="rotate(127.05882352941177 50 50)">
  <rect x="49.5" y="25.5" rx="0" ry="0" width="1" height="9" fill="#393939">
    <animate attributeName="opacity" values="1;0" times="0;1" dur="1s" begin="-0.5882352941176471s" repeatCount="indefinite"></animate>
  </rect>
</g><g transform="rotate(148.23529411764707 50 50)">
  <rect x="49.5" y="25.5" rx="0" ry="0" width="1" height="9" fill="#393939">
    <animate attributeName="opacity" values="1;0" times="0;1" dur="1s" begin="-0.5294117647058824s" repeatCount="indefinite"></animate>
  </rect>
</g><g transform="rotate(169.41176470588235 50 50)">
  <rect x="49.5" y="25.5" rx="0" ry="0" width="1" height="9" fill="#393939">
    <animate attributeName="opacity" values="1;0" times="0;1" dur="1s" begin="-0.47058823529411764s" repeatCount="indefinite"></animate>
  </rect>
</g><g transform="rotate(190.58823529411765 50 50)">
  <rect x="49.5" y="25.5" rx="0" ry="0" width="1" height="9" fill="#393939">
    <animate attributeName="opacity" values="1;0" times="0;1" dur="1s" begin="-0.4117647058823529s" repeatCount="indefinite"></animate>
  </rect>
</g><g transform="rotate(211.76470588235293 50 50)">
  <rect x="49.5" y="25.5" rx="0" ry="0" width="1" height="9" fill="#393939">
    <animate attributeName="opacity" values="1;0" times="0;1" dur="1s" begin="-0.35294117647058826s" repeatCount="indefinite"></animate>
  </rect>
</g><g transform="rotate(232.94117647058823 50 50)">
  <rect x="49.5" y="25.5" rx="0" ry="0" width="1" height="9" fill="#393939">
    <animate attributeName="opacity" values="1;0" times="0;1" dur="1s" begin="-0.29411764705882354s" repeatCount="indefinite"></animate>
  </rect>
</g><g transform="rotate(254.11764705882354 50 50)">
  <rect x="49.5" y="25.5" rx="0" ry="0" width="1" height="9" fill="#393939">
    <animate attributeName="opacity" values="1;0" times="0;1" dur="1s" begin="-0.23529411764705882s" repeatCount="indefinite"></animate>
  </rect>
</g><g transform="rotate(275.29411764705884 50 50)">
  <rect x="49.5" y="25.5" rx="0" ry="0" width="1" height="9" fill="#393939">
    <animate attributeName="opacity" values="1;0" times="0;1" dur="1s" begin="-0.17647058823529413s" repeatCount="indefinite"></animate>
  </rect>
</g><g transform="rotate(296.47058823529414 50 50)">
  <rect x="49.5" y="25.5" rx="0" ry="0" width="1" height="9" fill="#393939">
    <animate attributeName="opacity" values="1;0" times="0;1" dur="1s" begin="-0.11764705882352941s" repeatCount="indefinite"></animate>
  </rect>
</g><g transform="rotate(317.6470588235294 50 50)">
  <rect x="49.5" y="25.5" rx="0" ry="0" width="1" height="9" fill="#393939">
    <animate attributeName="opacity" values="1;0" times="0;1" dur="1s" begin="-0.058823529411764705s" repeatCount="indefinite"></animate>
  </rect>
</g><g transform="rotate(338.8235294117647 50 50)">
  <rect x="49.5" y="25.5" rx="0" ry="0" width="1" height="9" fill="#393939">
    <animate attributeName="opacity" values="1;0" times="0;1" dur="1s" begin="0s" repeatCount="indefinite"></animate>
  </rect>
</g></svg>