<svg width="751" height="683" viewBox="0 0 751 683" fill="none" xmlns="http://www.w3.org/2000/svg">
<g opacity="0.25">
<path opacity="0.25" d="M720.383 74.1573C696.38 64.781 669.376 76.7827 660 100.786C657.374 107.912 656.624 115.038 657.374 122.164C610.118 145.042 564.737 166.795 520.855 187.423H520.48C515.605 177.672 510.354 168.295 504.728 159.294C502.103 155.169 497.227 154.043 492.727 155.919C466.848 167.92 441.719 179.547 415.466 191.549C407.965 195.299 401.964 201.675 399.714 209.551L373.46 294.688C373.46 295.063 373.835 295.438 373.835 295.063C396.713 284.937 420.341 274.06 444.345 262.809C516.355 229.804 592.865 193.799 674.627 153.668C678.002 156.294 681.753 158.919 686.253 160.419C710.257 169.796 737.261 157.794 746.637 133.791C756.388 110.162 744.762 83.1586 720.383 74.1573Z" fill="white"/>
<path opacity="0.25" d="M596.615 264.684C594.364 270.685 593.614 276.685 593.989 282.686C580.487 289.062 567.736 295.438 555.359 301.064H554.984C553.484 289.812 551.983 278.561 549.358 267.684C548.233 262.058 541.857 259.058 536.231 261.683C448.469 302.939 371.583 337.819 299.573 368.573C299.198 368.573 299.198 368.948 299.573 369.323L365.958 409.829C374.209 415.08 384.71 415.455 393.336 411.329C444.718 388.451 500.976 361.822 556.859 335.194C572.986 327.318 590.239 319.441 608.241 310.44C611.242 312.69 614.242 314.941 617.993 316.441C638.245 324.692 661.499 314.566 669.375 293.938C677.626 273.685 667.499 250.432 646.872 242.556C627.744 234.305 604.491 244.431 596.615 264.684Z" fill="white"/>
<path opacity="0.25" d="M540.358 384.325C495.351 405.703 450.345 426.706 409.089 445.084C400.463 448.834 391.087 451.085 381.71 451.085C369.709 451.085 357.707 447.709 347.206 441.333L257.568 386.576H257.193C145.053 433.082 43.4134 470.212 -69.8524 506.592C-75.4782 508.468 -78.1035 515.218 -75.1031 520.094C10.4088 659.614 186.683 721.497 343.455 658.113C459.346 611.607 535.482 508.843 553.484 393.702C554.61 386.576 547.108 380.95 540.358 384.325Z" fill="white"/>
<path opacity="0.25" d="M328.829 315.691L364.834 199.05C370.46 181.047 383.586 166.045 400.464 158.169C408.715 154.418 416.591 150.668 424.842 146.917C462.723 129.665 496.102 113.913 543.359 91.4097C545.984 93.285 548.985 95.1602 551.985 96.2853C572.238 104.536 595.491 94.4101 603.367 73.7822C611.618 53.5294 601.492 30.2762 580.864 22.4001C560.611 14.149 537.358 24.2754 529.482 44.9033C526.856 51.2791 526.481 58.03 527.231 64.4059C499.478 77.9078 476.974 88.4092 455.597 98.1606C455.597 98.1606 455.596 98.1606 455.221 98.1606C361.083 5.89777 218.188 -27.4818 88.0454 24.6505C-64.6009 86.159 -148.613 245.556 -120.484 401.578C-118.983 409.079 -129.485 412.079 -132.485 405.328C-142.987 383.2 -153.488 355.071 -159.489 321.692C-160.614 315.316 -168.115 312.315 -173.366 315.691C-268.629 374.949 -321.512 430.082 -305.009 470.963C-288.507 511.843 -215.372 508.468 -109.232 479.964C-78.4778 471.713 56.1659 428.207 198.686 370.824C240.317 353.571 283.448 335.569 328.829 315.691Z" fill="white"/>
</g>
</svg>
