<svg width="507" height="135" viewBox="0 0 507 135" fill="none" xmlns="http://www.w3.org/2000/svg">
<path d="M203.196 14.6908C198.447 12.8509 193.106 15.2094 191.268 19.9574C190.731 21.3427 190.59 22.7716 190.722 24.1569C181.392 28.6955 172.418 32.9933 163.779 37.0581C163.759 37.0669 163.735 37.0597 163.726 37.0398C162.765 35.1348 161.731 33.2839 160.618 31.5086C160.126 30.7271 159.11 30.4536 158.273 30.8425C153.143 33.2413 148.171 35.533 143.009 37.917C141.502 38.6212 140.358 39.9269 139.871 41.5006L134.72 58.3245C134.702 58.3842 134.761 58.4389 134.819 58.4129C139.321 56.3935 143.969 54.2769 148.751 52.0725C162.979 45.5697 178.066 38.4323 194.255 30.5536C194.943 31.0844 195.684 31.5572 196.534 31.8859C201.283 33.7252 206.622 31.3672 208.462 26.6187C210.302 21.8702 207.944 16.5306 203.196 14.6908V14.6908Z" fill="white"/>
<path d="M178.692 52.3637C178.228 53.538 178.099 54.7509 178.203 55.9274C175.563 57.1923 173.007 58.4163 170.584 59.5718C170.56 59.5845 170.53 59.5674 170.528 59.5398C170.265 57.332 169.901 55.1232 169.416 52.9182C169.167 51.787 167.899 51.2049 166.851 51.6992C149.554 59.8563 134.321 66.7485 120.108 72.8337C120.049 72.8596 120.044 72.9386 120.099 72.9717L133.241 80.9979C134.886 82.0059 136.923 82.1308 138.682 81.3232C148.806 76.7752 159.917 71.5544 170.999 66.2646C170.999 66.2596 170.999 66.2558 170.999 66.2508C174.203 64.7274 177.578 63.1129 181.166 61.3929C181.75 61.8508 182.382 62.2595 183.105 62.5456C187.136 64.1392 191.696 62.164 193.289 58.1329C194.883 54.1025 192.906 49.5423 188.876 47.9488C184.845 46.3569 180.286 48.3321 178.693 52.3626L178.692 52.3637Z" fill="white"/>
<path d="M167.603 75.9538C158.681 80.1842 149.855 84.3014 141.676 87.9823C139.961 88.7517 138.13 89.1361 136.288 89.1499C133.907 89.1449 131.544 88.5037 129.454 87.2222L111.714 76.4056C111.694 76.3946 111.668 76.3918 111.647 76.4012C89.5292 85.5922 69.453 92.912 47.0702 100.126C45.9451 100.49 45.4176 101.817 46.0351 102.825C62.9408 130.403 97.7431 142.58 128.731 130.101C151.59 120.897 166.642 100.591 170.198 77.897C170.426 76.4432 168.933 75.3225 167.603 75.9538V75.9538Z" fill="white"/>
<path d="M125.806 62.424C125.825 62.4152 125.841 62.3981 125.847 62.3782L132.899 39.3724C134 35.8042 136.569 32.8624 139.97 31.2959C141.599 30.5403 143.192 29.8029 144.793 29.0606C152.25 25.6349 158.838 22.5517 168.167 18.0739C168.69 18.4539 169.25 18.7947 169.879 19.0438C173.909 20.6373 178.469 18.6605 180.061 14.63C181.655 10.5995 179.678 6.04098 175.648 4.44745C171.617 2.85393 167.058 4.83078 165.465 8.86181C164.965 10.125 164.852 11.4357 165.009 12.6962C159.514 15.3337 155.095 17.4293 150.893 19.3934C150.878 19.4011 150.859 19.3984 150.847 19.3862C132.281 1.15105 104.005 -5.44398 78.317 4.90093C48.145 17.0493 31.568 48.5518 37.0931 79.3529C37.3549 80.8078 35.3295 81.4607 34.692 80.1267C32.6031 75.74 30.5655 70.2243 29.3343 63.595C29.1001 62.345 27.6618 61.7214 26.5819 62.3936C7.77839 74.0979 -2.67423 84.9708 0.592905 93.082C3.83629 101.14 18.2608 100.506 39.234 94.8551C45.275 93.2262 71.8948 84.5963 100.031 73.266C108.326 69.9254 116.836 66.3446 125.806 62.4235L125.806 62.424Z" fill="white"/>
<path d="M241.185 52.1113L232.306 84.3999H250.571L241.589 52.1113H241.185H241.185ZM224.638 107.303H217.372C216.431 107.303 216.093 106.733 216.364 105.588L233.922 44.1376C234.257 42.9959 235.064 42.4226 236.343 42.4226H246.432C247.778 42.4226 248.584 42.9959 248.855 44.1376L266.411 105.588C266.68 106.733 266.311 107.303 265.301 107.303H258.137C257.531 107.303 257.11 107.188 256.876 106.951C256.639 106.715 256.455 106.261 256.321 105.588L252.487 92.4713H230.288L226.455 105.588C226.185 106.733 225.578 107.303 224.638 107.303V107.303Z" fill="white"/>
<path d="M279.426 107.303H273.07C271.925 107.303 271.354 106.733 271.354 105.588V57.5595C271.354 56.4167 271.925 55.8445 273.07 55.8445H279.426C280.568 55.8445 281.142 56.4162 281.142 57.5595V61.3928H281.545C282.216 59.7126 283.512 58.3671 285.43 57.3563C287.349 56.3482 289.482 55.8445 291.837 55.8445H295.569C296.713 55.8445 297.285 56.4162 297.285 57.5595V62.8052C297.285 64.0838 296.713 64.6224 295.569 64.4202H289.517C283.933 64.4202 281.142 67.4824 281.142 73.6019V105.588C281.142 106.732 280.569 107.303 279.427 107.303H279.426Z" fill="white"/>
<path d="M298.596 64.4208H293.751C293.077 64.4208 292.624 64.3042 292.39 64.0667C292.153 63.8325 292.034 63.4117 292.034 62.8046V57.559C292.034 56.4156 292.606 55.8439 293.751 55.8439H298.596C299.267 55.8439 299.604 55.5076 299.604 54.8348V45.7548C299.604 44.6114 300.209 44.0392 301.42 44.0392H307.777C308.919 44.0392 309.492 44.6109 309.492 45.7548V54.8348C309.492 55.5081 309.862 55.8439 310.602 55.8439H319.985C321.196 55.8439 321.802 56.4156 321.802 57.559V62.8046C321.802 63.8828 321.196 64.4208 319.985 64.4208H310.602C309.862 64.4208 309.492 64.7572 309.492 65.4288V91.3615C309.492 96.2724 312.015 98.7265 317.059 98.7265H320.993C322.204 98.7265 322.81 99.2982 322.81 100.442V105.689C322.81 106.765 322.204 107.304 320.993 107.304H315.545C310.567 107.304 306.665 105.958 303.84 103.267C301.015 100.577 299.603 96.7762 299.603 91.8653V65.4288C299.603 64.7572 299.267 64.4208 298.595 64.4208H298.596Z" fill="white"/>
<path d="M329.469 105.588V57.56C329.469 56.4166 330.007 55.8449 331.082 55.8449H337.541C338.685 55.8449 339.256 56.4166 339.256 57.56V105.588C339.256 106.261 339.14 106.716 338.904 106.95C338.668 107.188 338.247 107.303 337.643 107.303H331.184C330.041 107.303 329.469 106.733 329.469 105.588H329.469ZM329.469 47.2681V38.0859C329.469 37.011 330.007 36.4713 331.082 36.4713H337.643C338.717 36.4713 339.256 37.011 339.256 38.0859V47.2681C339.256 48.4109 338.717 48.9831 337.643 48.9831H331.082C330.007 48.9831 329.469 48.4114 329.469 47.2681Z" fill="white"/>
<path d="M356.511 107.303H350.154C349.009 107.303 348.438 106.733 348.438 105.588V57.5595C348.438 56.4167 349.009 55.8445 350.154 55.8445H356.511C357.653 55.8445 358.227 56.4162 358.227 57.5595V61.1918H358.629C360.244 57.6264 363.639 55.8445 368.821 55.8445H373.261C378.17 55.8445 381.938 57.19 384.563 59.8799C387.186 62.5693 388.496 66.4391 388.496 71.4825V105.588C388.496 106.732 387.891 107.303 386.682 107.303H380.325C379.179 107.303 378.609 106.733 378.609 105.588V71.8868C378.609 66.9091 376.154 64.4197 371.242 64.4197H366.502C360.986 64.4197 358.228 67.2792 358.228 72.9965V105.587C358.228 106.732 357.654 107.302 356.512 107.302L356.511 107.303Z" fill="white"/>
<path d="M405.752 107.303H399.395C398.251 107.303 397.68 106.733 397.68 105.588V38.086C397.68 36.9426 398.251 36.3693 399.395 36.3693H405.752C406.895 36.3693 407.467 36.9426 407.467 38.086V105.588C407.467 106.732 406.895 107.303 405.752 107.303Z" fill="white"/>
<path d="M433.698 98.7264H439.851C444.697 98.7264 447.118 96.2723 447.118 91.3614V71.7857C447.118 66.8781 444.697 64.4207 439.851 64.4207H433.698C431.141 64.4207 429.292 65.0106 428.149 66.186C427.005 67.3625 426.432 69.2294 426.432 71.7857V91.3614C426.432 93.9177 427.005 95.7846 428.149 96.9611C429.292 98.1382 431.141 98.7264 433.698 98.7264V98.7264ZM441.165 107.303H432.286C427.308 107.303 423.457 105.926 420.734 103.168C418.007 100.409 416.645 96.575 416.645 91.6641V71.483C416.645 66.5069 418.007 62.6543 420.734 59.9307C423.457 57.2048 427.308 55.8438 432.286 55.8438H441.165C446.074 55.8438 449.926 57.2043 452.718 59.9307C455.509 62.6543 456.905 66.5069 456.905 71.483V91.6641C456.905 96.575 455.509 100.409 452.718 103.168C449.926 105.926 446.074 107.303 441.165 107.303V107.303Z" fill="white"/>
<path d="M496.258 87.6282V65.4294C496.258 64.7578 495.885 64.4219 495.147 64.4219H483.14C478.363 64.4219 475.975 66.9092 475.975 71.8886V88.6368C475.975 93.6179 478.363 96.104 483.14 96.104H487.982C493.499 96.104 496.258 93.2788 496.258 87.6288V87.6282ZM485.662 104.78H481.122C476.278 104.78 472.56 103.418 469.973 100.695C467.382 97.9704 466.088 94.1205 466.088 89.1428V71.4842C466.088 66.5065 467.465 62.655 470.225 59.9308C472.982 57.2061 476.816 55.8451 481.728 55.8451H504.329C505.541 55.8451 506.146 56.4168 506.146 57.5607V107.507C506.146 112.415 504.749 116.235 501.959 118.958C499.167 121.684 495.315 123.045 490.406 123.045H471.436C470.292 123.045 469.721 122.507 469.721 121.43V116.183C469.721 115.04 470.291 114.468 471.436 114.468H488.893C493.801 114.468 496.26 111.979 496.26 107.001V99.3336H495.855C494.172 102.966 490.775 104.781 485.663 104.781L485.662 104.78Z" fill="white"/>
</svg>
